<svg width="20" height="25" viewBox="0 0 20 25" fill="none" xmlns="http://www.w3.org/2000/svg">
<circle cx="10" cy="12.5095" r="10" fill="#16AFBD"/>
<path d="M4.51508 12.5106C4.51508 11.4119 4.76041 10.4306 5.25108 9.5666C5.75241 8.69193 6.42974 8.0146 7.28308 7.5346C8.14708 7.04393 9.11241 6.7986 10.1791 6.7986C11.4271 6.7986 12.5204 7.1186 13.4591 7.7586C14.3977 8.3986 15.0537 9.28393 15.4271 10.4146H12.8511C12.5951 9.88126 12.2324 9.48126 11.7631 9.21459C11.3044 8.94793 10.7711 8.8146 10.1631 8.8146C9.51241 8.8146 8.93108 8.96926 8.41908 9.27859C7.91774 9.57726 7.52308 10.0039 7.23508 10.5586C6.95774 11.1133 6.81908 11.7639 6.81908 12.5106C6.81908 13.2466 6.95774 13.8973 7.23508 14.4626C7.52308 15.0173 7.91774 15.4493 8.41908 15.7586C8.93108 16.0573 9.51241 16.2066 10.1631 16.2066C10.7711 16.2066 11.3044 16.0733 11.7631 15.8066C12.2324 15.5293 12.5951 15.1239 12.8511 14.5906H15.4271C15.0537 15.7319 14.3977 16.6226 13.4591 17.2626C12.5311 17.8919 11.4377 18.2066 10.1791 18.2066C9.11241 18.2066 8.14708 17.9666 7.28308 17.4866C6.42974 16.9959 5.75241 16.3186 5.25108 15.4546C4.76041 14.5906 4.51508 13.6093 4.51508 12.5106Z" fill="white"/>
</svg>
