<svg width="13" height="17" viewBox="0 0 13 17" fill="none" xmlns="http://www.w3.org/2000/svg">
<path d="M6.6694 0.853027C3.43063 0.853027 0.802734 3.15696 0.802734 5.99588C0.802734 10.5673 6.6694 16.853 6.6694 16.853C6.6694 16.853 12.5361 10.5673 12.5361 5.99588C12.5361 3.15696 9.90817 0.853027 6.6694 0.853027ZM6.6694 8.85303C6.20527 8.85303 5.75157 8.71897 5.36566 8.46782C4.97976 8.21666 4.67898 7.85968 4.50136 7.44202C4.32375 7.02436 4.27728 6.56478 4.36783 6.12139C4.45837 5.67801 4.68187 5.27073 5.01006 4.95107C5.33824 4.63141 5.75638 4.41371 6.21159 4.32552C6.6668 4.23732 7.13863 4.28259 7.56743 4.45559C7.99623 4.62859 8.36273 4.92156 8.62058 5.29744C8.87844 5.67332 9.01607 6.11524 9.01607 6.56731C9.01539 7.17332 8.76793 7.75432 8.328 8.18283C7.88806 8.61134 7.29157 8.85237 6.6694 8.85303Z" fill="#16AFBD"/>
</svg>
